# xmcd
#
# Track frame offsets:
#	150
#	41480
#	106955
#	130552
#	154132
#	177010
#	195177
#	218705
#	231120
#	245842
#	289400
#
# Disc length: 4088 seconds
#
# Revision: 1
# Processed by: cddbd v1.5.2PL0 Copyright (c) Steve Scherf et al.
# Submitted via: audiograbber 1.83.01
#
DISCID=920ff60b
DTITLE=Differentes - Tata Güines Manos de seda Vol.II [Fiesta de Tambores]
DYEAR=2008
DGENRE=
TTITLE0=Mariano Mercerón - Fiesta de Tambores
TTITLE1=Pedro Aranzola - Guaguancó a todos los Berrios
TTITLE2=Frank Emilio - Gandinga, Mondongo y Sandunga
TTITLE3=Chano Pozo - Mantec
TTITLE4=Pedro A. Jústiz Jr. - Palermo Club
TTITLE5=Calixto Callava - Dónde vas Mulata
TTITLE6=Lázaro Rizo - Tata se ha vuelto loco
TTITLE7=Calixto Callava - Dale tres golpes a la Tumba
TTITLE8=Ernesto Gatell (El Gato) - Con tres Tambores Batá
TTITLE9=Aristides Soto (Tat Güines) - Pa'Gozar
TTITLE10=Orlando Valle (Maraca) - Pasaporte: Tata and Angá
EXTD=
EXTT0=
EXTT1=
EXTT2=
EXTT3=
EXTT4=
EXTT5=
EXTT6=
EXTT7=
EXTT8=
EXTT9=
EXTT10=
PLAYORDER=
